<svg width="1629" height="435" viewBox="0 0 1629 435" fill="none" xmlns="http://www.w3.org/2000/svg">
<path d="M359.014 272.516C360.888 272.758 362.524 272.758 363.468 272.979C366.03 273.221 368.847 273.221 371.652 273.221H375.625C390.842 273.221 399.969 265.963 399.969 254.256C399.969 240.931 389.894 233.435 371.652 233.435H359.014V272.516ZM359.014 208.402H378.91C385.7 208.402 393.884 198.807 393.884 190.848C393.884 178.449 385.22 171.433 370.245 171.433C368.146 171.433 363.23 171.659 359.014 172.139V208.402ZM319.232 147.089C343.334 144.289 354.34 143.583 370.245 143.583C411.663 143.583 434.359 158.333 434.359 185.24C434.359 199.976 428.048 209.333 412.594 217.53C431.779 222.913 442.318 236.72 442.318 255.905C442.318 275.558 430.386 290.295 409.084 296.622C399.969 299.422 385.458 301.058 370.483 301.058C352.704 301.058 341.235 300.353 319.232 297.327V147.089Z" fill="#173A13"/>
<path d="M494.257 220.802C494.257 232.976 499.398 247.007 506.894 255.208C513.204 262.224 521.869 266.193 531.221 266.66C553.917 268.067 568.203 251.46 568.203 224.312C568.203 197.643 551.354 177.752 528.884 177.752C507.6 177.752 494.257 194.358 494.257 220.802ZM591.829 166.521C605.172 180.794 613.131 200.911 613.131 221.044C613.131 270.183 579.897 303.4 530.52 303.4C483.493 303.4 449.329 269.703 449.329 223.143C449.329 176.804 484.424 141.471 530.52 141.471C556.258 141.471 575.924 149.673 591.829 166.521Z" fill="#173A13"/>
<path d="M665.763 218.231H686.363C695.478 218.231 703.675 207.931 703.675 196.704C703.675 183.599 693.842 175.415 678.162 175.415C673.951 175.415 672.778 175.415 665.763 175.883V218.231ZM624.107 146.397C628.318 146.154 631.841 145.691 633.94 145.466C647.04 144.297 662.72 143.592 672.077 143.592C719.58 143.592 744.15 160.666 744.15 193.661C744.15 211.678 735.965 224.541 719.117 233.443L760.535 299.193H712.564L682.841 246.548H665.763V299.193H624.107V146.397Z" fill="#173A13"/>
<path d="M831.66 299.189H790.012V179.851H746.257V145.687H875.414V179.851H831.66V299.189Z" fill="#173A13"/>
<path d="M914.015 220.802C914.015 232.976 919.157 247.007 926.653 255.208C932.963 262.224 941.627 266.193 950.984 266.66C973.68 268.067 987.966 251.46 987.966 224.312C987.966 197.643 971.117 177.752 948.643 177.752C927.358 177.752 914.015 194.358 914.015 220.802ZM1011.59 166.521C1024.93 180.794 1032.89 200.911 1032.89 221.044C1032.89 270.183 999.656 303.4 950.279 303.4C903.252 303.4 869.087 269.703 869.087 223.143C869.087 176.804 904.182 141.471 950.279 141.471C976.017 141.471 995.687 149.673 1011.59 166.521Z" fill="#173A13"/>
<path d="M1085.76 264.327H1149.17L1144.73 299.193H1044.12V145.691H1085.76V264.327Z" fill="#173A13"/>
<path d="M1194.32 145.691V235.547C1194.32 249.578 1196.66 256.832 1202.75 262.215C1207.89 266.669 1215.15 269.006 1224.51 269.006C1234.79 269.006 1243.22 264.795 1247.68 257.537C1250.25 253.101 1251.65 245.847 1251.65 235.547V145.691H1293.3V237.646C1293.3 262.215 1287.92 276.965 1275.05 287.728C1263.82 297.323 1243.22 303.408 1222.16 303.408C1192.91 303.408 1171.63 294.506 1161.33 278.358C1155.48 268.764 1152.68 255.438 1152.68 235.547V145.691H1194.32Z" fill="#173A13"/>
<path d="M1430.88 145.691L1437.89 162.769L1362.33 264.327H1439.54L1435.55 299.197H1308.27L1301.48 281.881L1376.82 179.856H1309.44V145.691H1430.88Z" fill="#173A13"/>
<path d="M1570.09 145.691L1577.11 162.769L1501.53 264.327H1578.76L1574.77 299.197H1447.48L1440.7 281.881L1516.04 179.856H1448.65V145.691H1570.09Z" fill="#173A13"/>
<path d="M1628.59 299.189H1586.93V145.683H1628.59V299.189Z" fill="#173A13"/>
<path d="M143.711 68.312C121.891 80.239 101.651 95.3541 83.575 113.43C45.862 151.135 21.017 198.276 11.222 249.527C7.86897 248.061 5.46397 246.132 3.82397 243.778C14.46 192.506 39.765 145.398 77.656 107.507C96.255 88.904 117.076 73.334 139.521 61.045C140.996 63.416 142.394 65.838 143.711 68.312Z" fill="#173A13"/>
<path d="M146.486 73.853C125.252 85.483 105.552 100.211 87.951 117.812C50.962 154.801 26.643 201.094 17.167 251.41C2.078 248.027 -0.761001 238.827 1.844 225.535C14.43 179.681 38.745 137.651 73.274 103.122C92.175 84.221 113.32 68.38 136.109 55.848C140.039 61.525 143.52 67.547 146.486 73.853Z" fill="#173A13"/>
<path d="M61.929 5.07303C45.153 16.921 29.354 30.238 14.634 44.962C13.083 46.513 11.545 48.076 10.024 49.653C8.82097 46.699 7.68196 43.857 6.63696 41.133L8.71097 39.042C21.854 25.895 35.838 13.844 50.596 2.93201C54.433 3.48001 58.215 4.19403 61.929 5.07303Z" fill="#173A13"/>
<path d="M69.735 7.198C51.663 19.564 34.712 33.642 19.011 49.342C16.835 51.518 14.694 53.715 12.582 55.937C9.42499 48.149 6.44099 41.023 4.28699 34.682L4.31699 34.653C16.088 22.887 28.516 11.991 41.566 1.97998C51.301 2.65498 60.731 4.436 69.735 7.198Z" fill="#173A13"/>
<path d="M96.7901 19.185C75.1361 32.558 55.0791 48.433 36.8371 66.68C31.7841 71.732 26.9151 76.916 22.2321 82.241C21.2671 79.122 20.2431 76.071 19.1851 73.088C22.9801 68.894 26.8891 64.78 30.9131 60.756C48.4801 43.194 67.6781 27.769 88.3381 14.6C91.2151 16.024 94.0411 17.554 96.7901 19.185Z" fill="#173A13"/>
<path d="M102.641 22.874C80.401 36.319 59.847 52.432 41.209 71.061C35.311 76.963 29.673 83.057 24.28 89.333C22.151 81.331 19.504 73.712 16.776 66.544C19.954 63.098 23.205 59.711 26.536 56.384C43.47 39.446 61.903 24.463 81.671 11.537C89.048 14.66 96.063 18.463 102.641 22.874Z" fill="#173A13"/>
<path d="M124.164 41.095C101.481 54.11 80.375 70.219 61.385 89.214C49.427 101.171 38.617 113.97 28.997 127.47C29.044 126.127 29.078 124.776 29.078 123.425C29.078 120.191 28.933 116.991 28.67 113.834C36.871 103.135 45.811 92.94 55.466 83.294C74.333 64.428 95.277 48.28 118.032 35.031C120.144 36.986 122.192 39.004 124.164 41.095Z" fill="#173A13"/>
<path d="M128.392 45.816C105.739 58.674 84.684 74.677 65.762 93.595C51.429 107.923 38.779 123.484 27.892 140.031C28.644 134.575 29.078 129.03 29.078 123.425C29.078 117.179 28.542 111.072 27.624 105.128C34.916 96.0041 42.739 87.255 51.089 78.905C69.837 60.153 90.599 44.035 113.125 30.722C118.631 35.311 123.744 40.364 128.392 45.816Z" fill="#173A13"/>
<path d="M299.69 60.051C290.503 59.001 281.235 58.474 272.154 58.474C207.514 58.474 146.83 83.583 101.303 129.17C65.673 164.851 42.662 209.775 34.478 258.57V0H29.77H29.681C13.687 0.926 0.926 13.7 0 29.694V301.173H34.478L62.014 301.19L62.09 299.584C64.759 245.108 87.603 193.963 126.446 155.571C164.834 117.616 215.579 95.337 269.528 92.728C266.456 163.785 228.828 228.918 168.599 267.34H152.843V207.871H118.364V301.173H183.229L183.616 300.935C219.234 279.663 248.962 249.336 269.575 213.238C290.38 176.813 301.279 135.425 301.173 93.42V60.217L299.69 60.051Z" fill="#173A13"/>
<path d="M384.752 412.925C384.752 419.953 382.186 425.337 377.078 429.098C371.949 432.846 364.619 434.72 355.084 434.72C345.489 434.72 337.802 433.266 331.985 430.36V417.153C340.441 421.063 348.31 423.013 355.611 423.013C365.01 423.013 369.714 420.166 369.714 414.485C369.714 412.67 369.204 411.141 368.155 409.925C367.122 408.71 365.397 407.452 363.013 406.165C360.633 404.86 357.319 403.377 353.061 401.724C344.771 398.52 339.166 395.312 336.242 392.104C333.319 388.896 331.849 384.727 331.849 379.615C331.849 373.454 334.339 368.673 339.302 365.269C344.261 361.853 351.021 360.158 359.567 360.158C368.036 360.158 376.029 361.866 383.584 365.299L378.633 376.811C370.87 373.602 364.347 372 359.057 372C350.979 372 346.946 374.295 346.946 378.897C346.946 381.145 347.996 383.061 350.108 384.621C352.207 386.18 356.792 388.326 363.871 391.067C369.807 393.361 374.125 395.461 376.806 397.377C379.505 399.281 381.498 401.486 382.802 403.976C384.107 406.479 384.752 409.462 384.752 412.925Z" fill="#173A13"/>
<path d="M427.241 371.737C422.384 371.737 418.487 373.279 415.564 376.356C412.64 379.441 410.886 383.924 410.333 389.83H442.981C442.908 383.881 441.468 379.381 438.693 376.326C435.922 373.266 432.098 371.737 427.241 371.737ZM430.046 434.728C418.849 434.728 410.091 431.461 403.781 424.925C397.471 418.403 394.322 409.407 394.322 397.955C394.322 386.202 397.245 376.968 403.109 370.237C408.952 363.523 417.005 360.149 427.241 360.149C436.747 360.149 444.243 363.043 449.758 368.813C455.261 374.584 458.019 382.517 458.019 392.618V400.896H410.061C410.287 407.881 412.16 413.248 415.73 416.992C419.282 420.74 424.288 422.614 430.751 422.614C435.009 422.614 438.965 422.227 442.623 421.415C446.295 420.608 450.238 419.286 454.437 417.413V429.842C450.701 431.627 446.941 432.884 443.116 433.619C439.296 434.355 434.949 434.728 430.046 434.728Z" fill="#173A13"/>
<path d="M533.367 433.42H518.019V389.048C518.019 383.533 516.969 379.424 514.883 376.713C512.801 373.997 509.546 372.65 505.127 372.65C499.233 372.65 494.903 374.567 492.145 378.404C489.387 382.241 488.023 388.628 488.023 397.564V433.42H472.73V361.449H484.691L486.85 370.896H487.632C489.625 367.462 492.519 364.823 496.309 362.949C500.104 361.092 504.285 360.162 508.845 360.162C519.906 360.162 527.236 363.922 530.835 371.478H531.867C533.996 367.925 536.996 365.137 540.846 363.145C544.717 361.152 549.137 360.162 554.129 360.162C562.721 360.162 568.972 362.32 572.898 366.667C576.825 371.002 578.788 377.61 578.788 386.499V433.42H563.499V389.048C563.499 383.533 562.433 379.424 560.338 376.713C558.238 373.997 554.971 372.65 550.547 372.65C544.594 372.65 540.247 374.507 537.506 378.209C534.748 381.914 533.367 387.608 533.367 395.286V433.42Z" fill="#173A13"/>
<path d="M626.091 371.737C621.234 371.737 617.338 373.279 614.414 376.356C611.49 379.441 609.736 383.924 609.183 389.83H641.831C641.754 383.881 640.318 379.381 637.543 376.326C634.768 373.266 630.948 371.737 626.091 371.737ZM628.896 434.728C617.695 434.728 608.941 431.461 602.631 424.925C596.321 418.403 593.172 409.407 593.172 397.955C593.172 386.202 596.095 376.968 601.955 370.237C607.802 363.523 615.851 360.149 626.091 360.149C635.593 360.149 643.088 363.043 648.608 368.813C654.107 374.584 656.865 382.517 656.865 392.618V400.896H608.911C609.137 407.881 611.01 413.248 614.58 416.992C618.132 420.74 623.138 422.614 629.597 422.614C633.855 422.614 637.815 422.227 641.486 421.415C645.145 420.608 649.084 419.286 653.283 417.413V429.842C649.551 431.627 645.787 432.884 641.967 433.619C638.142 434.355 633.795 434.728 628.896 434.728Z" fill="#173A13"/>
<path d="M734.886 433.42H719.538V389.167C719.538 383.622 718.411 379.483 716.176 376.743C713.946 374.014 710.406 372.65 705.536 372.65C699.073 372.65 694.352 374.554 691.352 378.374C688.369 382.199 686.873 388.585 686.873 397.564V433.42H671.58V361.449H683.542L685.7 370.896H686.482C688.641 367.462 691.73 364.823 695.716 362.949C699.702 361.092 704.125 360.162 708.982 360.162C726.251 360.162 734.886 368.945 734.886 386.499V433.42Z" fill="#173A13"/>
<path d="M780.307 422.359C784.038 422.359 787.768 421.777 791.504 420.604V432.119C789.808 432.855 787.62 433.466 784.951 433.976C782.283 434.473 779.525 434.728 776.661 434.728C762.179 434.728 754.926 427.08 754.926 411.82V373.041H745.105V366.264L755.644 360.672L760.845 345.442H770.291V361.454H790.781V373.041H770.291V411.553C770.291 415.237 771.205 417.965 773.049 419.72C774.893 421.475 777.307 422.359 780.307 422.359Z" fill="#173A13"/>
<path d="M831.842 371.737C826.985 371.737 823.084 373.279 820.165 376.356C817.242 379.441 815.487 383.924 814.93 389.83H847.582C847.505 383.881 846.069 379.381 843.294 376.326C840.519 373.266 836.699 371.737 831.842 371.737ZM834.642 434.728C823.446 434.728 814.692 431.461 808.382 424.925C802.067 418.403 798.923 409.407 798.923 397.955C798.923 386.202 801.846 376.968 807.706 370.237C813.553 363.523 821.602 360.149 831.842 360.149C841.344 360.149 848.84 363.043 854.355 368.813C859.858 374.584 862.616 382.517 862.616 392.618V400.896H814.662C814.888 407.881 816.762 413.248 820.327 416.992C823.879 420.74 828.889 422.614 835.348 422.614C839.606 422.614 843.562 422.227 847.237 421.415C850.892 420.608 854.835 419.286 859.034 417.413V429.842C855.302 431.627 851.538 432.884 847.718 433.619C843.893 434.355 839.546 434.728 834.642 434.728Z" fill="#173A13"/>
<path d="M925.671 412.925C925.671 419.953 923.105 425.337 917.997 429.098C912.868 432.846 905.538 434.72 896.002 434.72C886.408 434.72 878.72 433.266 872.903 430.36V417.153C881.359 421.063 889.229 423.013 896.529 423.013C905.929 423.013 910.633 420.166 910.633 414.485C910.633 412.67 910.123 411.141 909.073 409.925C908.041 408.71 906.316 407.452 903.932 406.165C901.552 404.86 898.238 403.377 893.98 401.724C885.69 398.52 880.084 395.312 877.161 392.104C874.238 388.896 872.767 384.727 872.767 379.615C872.767 373.454 875.257 368.673 880.221 365.269C885.179 361.853 891.94 360.158 900.486 360.158C908.954 360.158 916.947 361.866 924.503 365.299L919.552 376.811C911.789 373.602 905.266 372 899.975 372C891.898 372 887.865 374.295 887.865 378.897C887.865 381.145 888.915 383.061 891.027 384.621C893.126 386.18 897.711 388.326 904.79 391.067C910.726 393.361 915.044 395.461 917.725 397.377C920.423 399.281 922.416 401.486 923.721 403.976C925.025 406.479 925.671 409.462 925.671 412.925Z" fill="#173A13"/>
</svg>
